<?xml version="1.0" encoding="UTF-8" standalone="no"?>
<!-- Created with Inkscape (http://www.inkscape.org/) -->

<svg
   xmlns:dc="http://purl.org/dc/elements/1.1/"
   xmlns:cc="http://creativecommons.org/ns#"
   xmlns:rdf="http://www.w3.org/1999/02/22-rdf-syntax-ns#"
   xmlns:svg="http://www.w3.org/2000/svg"
   xmlns="http://www.w3.org/2000/svg"
   xmlns:sodipodi="http://sodipodi.sourceforge.net/DTD/sodipodi-0.dtd"
   xmlns:inkscape="http://www.inkscape.org/namespaces/inkscape"
   width="800"
   height="600"
   viewBox="0 0 800.00001 600.00001"
   id="svg2"
   version="1.1"
   inkscape:version="0.91 r13725"
   sodipodi:docname="bg.svg">
  <defs
     id="defs4" />
  <sodipodi:namedview
     id="base"
     pagecolor="#ffffff"
     bordercolor="#666666"
     borderopacity="1.0"
     inkscape:pageopacity="0.0"
     inkscape:pageshadow="2"
     inkscape:zoom="0.7"
     inkscape:cx="312.47717"
     inkscape:cy="202.15157"
     inkscape:document-units="px"
     inkscape:current-layer="layer1"
     showgrid="false"
     units="px"
     inkscape:window-width="1440"
     inkscape:window-height="844"
     inkscape:window-x="0"
     inkscape:window-y="33"
     inkscape:window-maximized="1" />
  <metadata
     id="metadata7">
    <rdf:RDF>
      <cc:Work
         rdf:about="">
        <dc:format>image/svg+xml</dc:format>
        <dc:type
           rdf:resource="http://purl.org/dc/dcmitype/StillImage" />
        <dc:title></dc:title>
      </cc:Work>
    </rdf:RDF>
  </metadata>
  <g
     inkscape:label="Layer 1"
     inkscape:groupmode="layer"
     id="layer1"
     transform="translate(0,-452.36216)">
    <path
       sodipodi:type="spiral"
       style="opacity:0.06;fill:none;fill-rule:evenodd;stroke:#000000;stroke-width:10.00000003;stroke-linecap:round;stroke-linejoin:round;stroke-miterlimit:4;stroke-dasharray:none;stroke-opacity:1"
       id="path4136"
       sodipodi:cx="165.71428"
       sodipodi:cy="930.93359"
       sodipodi:expansion="1"
       sodipodi:revolution="2.1067753"
       sodipodi:radius="36.888203"
       sodipodi:argument="-16.888153"
       sodipodi:t0="0"
       d="m 165.71428,930.93359 c -1.00277,2.4353 -3.77746,-0.15022 -4.04762,-1.66666 -0.73212,-4.10947 3.83392,-6.72165 7.38095,-6.42858 6.34481,0.52424 9.87696,7.27889 8.80954,13.09524 -1.56649,8.53572 -10.76079,13.09863 -18.80953,11.19049 -10.7277,-2.54324 -16.34694,-14.2545 -13.57145,-24.52381 3.49267,-12.92288 17.75354,-19.60871 30.2381,-15.95241 15.12048,4.42827 22.8782,21.25551 18.33336,35.95239 -5.35593,17.31977 -24.75929,26.15253 -41.66667,20.71432 -7.71029,-2.47999 -14.40861,-7.65044 -18.87324,-14.39551"
       transform="matrix(0.8342594,0.55137215,-0.55137215,0.8342594,542.93794,64.365757)" />
    <path
       sodipodi:type="spiral"
       style="opacity:0.06;fill:none;fill-rule:evenodd;stroke:#000000;stroke-width:10.00000001;stroke-linecap:round;stroke-linejoin:round;stroke-miterlimit:4;stroke-dasharray:none;stroke-opacity:1"
       id="path4136-9"
       sodipodi:cx="165.71428"
       sodipodi:cy="930.93359"
       sodipodi:expansion="1"
       sodipodi:revolution="1.6070035"
       sodipodi:radius="28.137531"
       sodipodi:argument="-16.888153"
       sodipodi:t0="0"
       d="m 165.71428,930.93359 c -1.00277,2.4353 -3.77746,-0.15022 -4.04762,-1.66666 -0.73212,-4.10947 3.83392,-6.72165 7.38095,-6.42858 6.34481,0.52424 9.87696,7.27889 8.80953,13.09524 -1.56649,8.53572 -10.76078,13.09862 -18.80952,11.19049 -10.7277,-2.54325 -16.34694,-14.2545 -13.57145,-24.52381 3.49268,-12.92288 17.75354,-19.6087 30.2381,-15.9524 5.90778,1.73018 11.08299,5.55316 14.58612,10.60202"
       transform="matrix(0.0676965,-0.99770596,0.99770596,0.0676965,-218.81964,764.42058)" />
    <path
       style="opacity:0.06;fill:none;fill-rule:evenodd;stroke:#000000;stroke-width:10;stroke-linecap:butt;stroke-linejoin:miter;stroke-miterlimit:4;stroke-dasharray:none;stroke-opacity:1"
       d="m 98.582381,574.70745 21.997769,48.08343 11.33486,-28.10495 z"
       id="path4172"
       inkscape:connector-curvature="0" />
    <path
       sodipodi:type="star"
       style="opacity:0.06;fill:none;fill-opacity:1;fill-rule:nonzero;stroke:#000000;stroke-width:10;stroke-linecap:round;stroke-linejoin:round;stroke-miterlimit:4;stroke-dasharray:none;stroke-opacity:1"
       id="path4197"
       sodipodi:sides="5"
       sodipodi:cx="492.85712"
       sodipodi:cy="890.93363"
       sodipodi:r1="27.292818"
       sodipodi:r2="13.646409"
       sodipodi:arg1="0.74837805"
       sodipodi:arg2="1.3766966"
       inkscape:flatsided="false"
       inkscape:rounded="0"
       inkscape:randomized="0"
       d="m 512.85712,909.50508 -17.36784,-5.18127 -14.1143,11.36986 -0.43927,-18.11889 -15.17494,-9.91002 17.09635,-6.01682 4.73567,-17.49459 11.0054,14.4003 18.10174,-0.90224 -10.29464,14.91669 z"
       inkscape:transform-center-x="1.6267669"
       inkscape:transform-center-y="-1.0101445" />
    <path
       sodipodi:type="star"
       style="opacity:0.06;fill:none;fill-opacity:1;fill-rule:nonzero;stroke:#000000;stroke-width:10;stroke-linecap:round;stroke-linejoin:round;stroke-miterlimit:4;stroke-dasharray:none;stroke-opacity:1"
       id="path4217"
       sodipodi:sides="5"
       sodipodi:cx="391.42855"
       sodipodi:cy="550.93359"
       sodipodi:r1="62.613163"
       sodipodi:r2="50.655113"
       sodipodi:arg1="0.60698766"
       sodipodi:arg2="1.2353062"
       inkscape:flatsided="true"
       inkscape:rounded="0"
       inkscape:randomized="0"
       d="m 442.85713,586.64788 -69.50257,24.23351 -44.52492,-58.6123 41.98466,-60.45792 70.47287,21.24727 z"
       inkscape:transform-center-x="5.5851737"
       inkscape:transform-center-y="0.41268965" />
  </g>
</svg>
